HIERARCHY
ROOT Hips
{
	OFFSET 0.000000 0.000000 0.000000
	CHANNELS 6 Xposition Yposition Zposition Zrotation Yrotation Xrotation 
	JOINT LHipJoint
	{
		OFFSET 0.000000 0.000000 0.000000
		CHANNELS 3 Zrotation Yrotation Xrotation
		JOINT LeftUpLeg
		{
			OFFSET 1.363060 -1.794630 0.839290
			CHANNELS 3 Zrotation Yrotation Xrotation
			JOINT LeftLeg
			{
				OFFSET 2.448110 -6.726130 0.000000
				CHANNELS 3 Zrotation Yrotation Xrotation
				JOINT LeftFoot
				{
					OFFSET 2.562200 -7.039590 0.000000
					CHANNELS 3 Zrotation Yrotation Xrotation
					JOINT LeftToeBase
					{
						OFFSET 0.157640 -0.433110 2.322550
						CHANNELS 3 Zrotation Yrotation Xrotation
						End Site
						{
							OFFSET 0.000000 0.000000 0.000000
						}
					}
				}
			}
		}
	}
	JOINT RHipJoint
	{
		OFFSET 0.000000 0.000000 0.000000
		CHANNELS 3 Zrotation Yrotation Xrotation
		JOINT RightUpLeg
		{
			OFFSET -1.305520 -1.794630 0.839290
			CHANNELS 3 Zrotation Yrotation Xrotation
			JOINT RightLeg
			{
				OFFSET -2.542530 -6.985550 0.000000
				CHANNELS 3 Zrotation Yrotation Xrotation
				JOINT RightFoot
				{
					OFFSET -2.568260 -7.056230 0.000000
					CHANNELS 3 Zrotation Yrotation Xrotation
					JOINT RightToeBase
					{
						OFFSET -0.164730 -0.452590 2.363150
						CHANNELS 3 Zrotation Yrotation Xrotation
						End Site
						{
							OFFSET 0.000000 0.000000 0.000000
						}
					}
				}
			}
		}
	}
	JOINT LowerBack
	{
		OFFSET 0.000000 0.000000 0.000000
		CHANNELS 3 Zrotation Yrotation Xrotation
		JOINT Spine
		{
			OFFSET 0.028270 2.035590 -0.193380
			CHANNELS 3 Zrotation Yrotation Xrotation
			JOINT Spine1
			{
				OFFSET 0.056720 2.048850 -0.042750
				CHANNELS 3 Zrotation Yrotation Xrotation
				JOINT Neck
				{
					OFFSET 0.000000 0.000000 0.000000
					CHANNELS 3 Zrotation Yrotation Xrotation
					JOINT Neck1
					{
						OFFSET -0.054170 1.746240 0.172020
						CHANNELS 3 Zrotation Yrotation Xrotation
						JOINT Head
						{
							OFFSET 0.104070 1.761360 -0.123970
							CHANNELS 3 Zrotation Yrotation Xrotation
							End Site
							{
								OFFSET 0.000000 0.000000 0.000000
							}
						}
					}
				}
				JOINT LeftShoulder
				{
					OFFSET 0.000000 0.000000 0.000000
					CHANNELS 3 Zrotation Yrotation Xrotation
					JOINT LeftArm
					{
						OFFSET 3.362410 1.200890 -0.311210
						CHANNELS 3 Zrotation Yrotation Xrotation
						JOINT LeftForeArm
						{
							OFFSET 4.983000 -0.000000 -0.000000
							CHANNELS 3 Zrotation Yrotation Xrotation
							JOINT LeftHand
							{
								OFFSET 3.483560 -0.000000 -0.000000
								CHANNELS 3 Zrotation Yrotation Xrotation
								JOINT LeftFingerBase
								{
									OFFSET 0.000000 0.000000 0.000000
									CHANNELS 3 Zrotation Yrotation Xrotation
									JOINT LeftHandIndex1
									{
										OFFSET 0.715260 -0.000000 -0.000000
										CHANNELS 3 Zrotation Yrotation Xrotation
										End Site
										{
											OFFSET 0.000000 0.000000 0.000000
										}
									}
								}
								JOINT LThumb
								{
									OFFSET 0.000000 0.000000 0.000000
									CHANNELS 3 Zrotation Yrotation Xrotation
									End Site
									{
										OFFSET 0.000000 0.000000 0.000000
									}
								}
							}
						}
					}
				}
				JOINT RightShoulder
				{
					OFFSET 0.000000 0.000000 0.000000
					CHANNELS 3 Zrotation Yrotation Xrotation
					JOINT RightArm
					{
						OFFSET -3.136600 1.374050 -0.404650
						CHANNELS 3 Zrotation Yrotation Xrotation
						JOINT RightForeArm
						{
							OFFSET -5.241900 -0.000000 -0.000000
							CHANNELS 3 Zrotation Yrotation Xrotation
							JOINT RightHand
							{
								OFFSET -3.444170 -0.000000 -0.000000
								CHANNELS 3 Zrotation Yrotation Xrotation
								JOINT RightFingerBase
								{
									OFFSET 0.000000 0.000000 0.000000
									CHANNELS 3 Zrotation Yrotation Xrotation
									JOINT RightHandIndex1
									{
										OFFSET -0.622530 -0.000000 -0.000000
										CHANNELS 3 Zrotation Yrotation Xrotation
										End Site
										{
											OFFSET 0.000000 0.000000 0.000000
										}
									}
								}
								JOINT RThumb
								{
									OFFSET 0.000000 0.000000 0.000000
									CHANNELS 3 Zrotation Yrotation Xrotation
									End Site
									{
										OFFSET 0.000000 0.000000 0.000000
									}
								}
							}
						}
					}
				}
			}
		}
	}
}
MOTION
Frames: 9
Frame Time: 0.008333
0.738353 17.713055 -24.816934 4.373040 7.314714 1.161967 1.152604 0.585587 0.219723 -29.336124 0.246820 -10.903823 0.676088 6.262091 17.618968 1.599150 -16.950936 -2.557460 0.040200 1.294200 3.558700 -2.801129 -0.709888 -0.937787 18.342228 -0.744238 -18.628899 -12.055770 -18.488672 67.076491 0.754133 -8.340103 -8.585963 -0.784200 -5.653400 15.781900 -8.488405 -0.192236 9.883836 -0.051466 -0.963639 -1.349988 5.147004 -0.775361 -2.127151 -3.130033 -2.483804 -16.647310 5.496406 -3.113837 6.579233 0.526700 -1.404400 6.972100 1.105868 4.201823 -0.715212 -86.291577 4.829457 23.813815 14.958564 -24.625142 -2.933479 0.441994 -0.022697 7.657389 5.706245 41.027470 3.461700 -7.125000 0.000000 0.000000 -41.445500 66.644200 -23.251300 -0.606974 -4.680297 -1.797662 83.270581 -1.989543 7.331053 -11.795163 20.796216 -1.592731 1.151297 0.705376 -22.526899 -24.312517 25.061153 -11.285100 7.125000 0.000000 0.000000 2.308800 -3.123500 2.181400 
0.753901 17.690089 -24.722734 4.537529 7.546855 0.824962 1.155392 0.583573 0.223716 -29.633364 0.372321 -10.646266 0.756968 6.511906 18.333654 1.670342 -16.946577 -3.427819 0.027900 1.077600 2.962200 -2.786541 -0.710886 -0.902709 17.940775 -0.315592 -19.161697 -11.991869 -18.481536 66.885639 0.721427 -8.227614 -9.169800 -0.968900 -6.266900 17.560900 -8.610787 -0.262010 10.098274 -0.102265 -1.107408 -1.424510 5.020214 -0.810501 -2.495751 -2.969685 -2.397510 -15.684494 5.309826 -3.088899 6.091625 0.426900 -1.425800 6.586000 1.122416 4.151489 -0.701265 -86.056399 4.909271 23.898616 15.206525 -24.962409 -3.030404 0.438733 -0.012332 7.518055 4.715820 41.696703 2.848500 -7.125000 0.000000 0.000000 -43.487100 66.817800 -24.740900 -0.616487 -4.683252 -1.797478 83.092581 -2.223961 7.616944 -11.839806 20.845630 -1.590565 1.160880 0.700103 -23.060658 -24.545354 25.641617 -11.653800 7.125000 0.000000 0.000000 2.241000 -2.445500 2.145000 
0.765993 17.667632 -24.630669 5.085038 8.001731 0.655638 1.170007 0.588638 0.228883 -30.320740 0.290447 -10.202574 0.818387 6.682491 18.830104 1.709206 -16.986864 -3.961462 0.024900 1.019600 2.802600 -2.749422 -0.703563 -0.875887 17.065998 -0.269263 -19.665457 -11.899904 -18.453981 66.601786 0.673628 -8.099994 -10.079695 -0.781300 -5.643200 15.752700 -9.156224 -0.331513 10.407374 -0.215700 -1.301716 -1.487433 4.987949 -0.886925 -2.798472 -3.191189 -2.436096 -15.721043 5.682291 -3.088214 6.485454 0.619300 -1.384100 6.767300 1.088351 4.166679 -0.721915 -85.686933 4.187700 24.183429 14.988260 -24.623674 -2.935726 0.437477 -0.010796 7.345818 5.055826 41.444649 3.061100 -7.125000 0.000000 0.000000 -42.738900 66.742600 -24.179600 -0.663504 -4.624653 -1.806809 83.113335 -2.649084 7.648843 -12.169976 21.410747 -1.735721 1.145879 0.711094 -23.375017 -24.547696 25.516688 -11.595600 7.125000 0.000000 0.000000 2.226900 -2.586000 2.125800 
0.768940 17.653202 -24.545412 4.678840 8.069740 0.437173 1.167442 0.592111 0.227443 -29.870760 0.246570 -9.893051 0.880949 6.847741 19.312612 1.769566 -17.186408 -4.507396 0.177100 2.710900 7.475000 -2.767365 -0.710400 -0.848209 17.459691 0.393384 -20.221423 -11.744068 -18.418604 66.123534 0.658021 -8.168396 -10.805412 -0.602700 -4.969600 13.821900 -8.775593 -0.434157 10.552666 -0.186371 -1.409766 -1.480303 4.835481 -0.935635 -2.872575 -2.932396 -2.437357 -15.421524 5.532122 -3.169718 6.245454 0.501100 -1.436700 6.610100 1.106803 4.134291 -0.712655 -85.539012 3.494083 23.901979 14.978892 -24.600785 -2.914431 0.437626 -0.008254 7.605193 4.757184 42.437469 2.918500 -7.125000 0.000000 0.000000 -44.710800 67.346600 -26.064600 -0.663000 -4.631354 -1.810549 83.042668 -2.531079 8.096153 -12.457396 21.895615 -1.855423 1.139548 0.717925 -23.557574 -24.802857 25.592474 -11.750900 7.125000 0.000000 0.000000 2.082700 -2.462200 1.992600 
0.785199 17.642431 -24.455988 5.018833 8.428148 0.447046 1.186237 0.591463 0.216162 -30.340428 -0.139217 -9.654194 0.937209 7.054404 19.916776 1.746595 -16.539410 -4.553519 0.044800 1.366700 3.758500 -2.757465 -0.707112 -0.808124 16.790468 0.784329 -21.034241 -11.564091 -18.360971 65.558018 0.589660 -7.907663 -11.481494 -0.561800 -4.800700 13.340900 -9.115994 -0.550514 10.462378 -0.216258 -1.597544 -1.508169 4.914864 -1.028666 -2.871802 -2.994133 -2.603816 -15.420253 5.797562 -3.379609 6.636160 0.590900 -1.499500 6.764600 1.097869 4.158301 -0.716454 -85.501075 2.995146 23.952333 15.001324 -24.646630 -2.933742 0.438105 -0.010819 7.246782 5.578350 41.844446 3.434900 -7.125000 0.000000 0.000000 -42.909100 67.189200 -24.709600 -0.696474 -4.602025 -1.822912 82.818419 -2.733094 8.583809 -12.769855 22.423410 -1.984568 1.140829 0.718606 -24.194673 -24.747520 26.088531 -11.939300 7.125000 0.000000 0.000000 2.184100 -1.935200 2.110700 
0.788349 17.624851 -24.366971 4.601170 8.479459 0.068362 1.178434 0.597537 0.216437 -29.949284 -0.324636 -9.374062 1.014078 7.335002 20.720590 1.808127 -15.719711 -5.489360 0.011800 0.701100 1.926700 -2.789555 -0.713137 -0.797107 17.212017 1.344304 -21.331193 -11.333028 -18.278617 64.825261 0.665225 -8.452027 -11.627621 -0.625000 -5.058800 14.076400 -8.866319 -0.603796 10.668036 -0.113703 -1.648780 -1.474659 5.100463 -1.060924 -2.892374 -3.290391 -2.676158 -15.308984 5.778682 -3.401860 6.538424 0.639900 -1.531000 6.712000 1.118797 4.146245 -0.698144 -85.643569 2.328321 23.920755 15.037192 -24.711421 -2.953838 0.437184 -0.009420 7.098979 5.491186 41.718240 3.368800 -7.125000 0.000000 0.000000 -42.777600 67.072400 -24.513600 -0.715187 -4.591205 -1.837117 82.420482 -2.899379 9.695082 -13.267912 23.238122 -2.201433 1.132387 0.731120 -25.247845 -24.749201 26.533703 -12.130300 7.125000 0.000000 0.000000 2.246100 -1.456900 2.189900 
0.794548 17.619059 -24.282730 4.934230 8.798335 0.223276 1.179054 0.593358 0.208014 -30.360242 -0.681994 -9.012132 1.043321 7.452478 21.047088 1.854790 -15.287961 -6.233134 0.002100 0.293100 0.805300 -2.777323 -0.712458 -0.754900 16.575274 1.786219 -22.141318 -11.106787 -18.197031 64.104028 0.568524 -8.011725 -12.233533 -0.641900 -5.125500 14.266900 -9.327744 -0.578495 10.451008 -0.160161 -1.655953 -1.496597 5.180986 -1.058812 -2.846852 -2.942189 -2.806810 -15.195011 5.415706 -3.656044 6.530463 0.394700 -1.672500 6.671300 1.133095 4.124405 -0.696395 -85.466400 1.475255 24.429676 14.898364 -24.525413 -2.895360 0.438873 -0.007846 6.947743 5.784510 41.810297 3.570400 -7.125000 0.000000 0.000000 -42.651300 67.228000 -24.575300 -0.706526 -4.614289 -1.842571 82.465476 -2.788368 8.909202 -13.428398 23.513800 -2.279108 1.127052 0.729031 -24.840914 -24.705980 26.351142 -12.024900 7.125000 0.000000 0.000000 2.249500 -1.668000 2.184800 
0.796783 17.602800 -24.200827 4.771347 8.902373 0.095757 1.196282 0.597755 0.194250 -30.216609 -0.915852 -8.732064 1.130827 7.628764 21.590871 1.845891 -15.789525 -5.939782 0.058500 1.560400 4.292200 -2.794973 -0.709555 -0.737131 16.606250 2.354236 -22.688016 -10.852960 -18.098842 63.289272 0.545814 -7.994181 -12.617138 -0.598600 -4.952800 13.773900 -9.168249 -0.784491 10.403346 -0.137728 -1.885459 -1.415962 5.167844 -1.205230 -2.545796 -3.273515 -2.765473 -15.512715 5.924101 -3.518147 6.828676 0.677000 -1.559100 6.851200 1.108724 4.169432 -0.695205 -85.429397 0.592464 24.142017 14.996821 -24.682565 -2.928909 0.442067 -0.007837 6.934881 5.841511 42.300213 3.640700 -7.125000 0.000000 0.000000 -43.448600 67.592100 -25.447300 -0.745979 -4.586703 -1.836086 82.358630 -2.463240 9.761639 -13.808270 24.141726 -2.454971 1.118694 0.745333 -25.607307 -24.825874 26.547426 -12.168600 7.125000 0.000000 0.000000 2.203300 -1.439000 2.148900 
0.814058 17.577192 -24.111302 5.110817 9.229104 -0.107315 1.212783 0.595534 0.187848 -30.846741 -1.188119 -8.525245 1.175433 7.814453 22.126934 1.838812 -14.767125 -6.459837 0.030700 1.130400 3.107700 -2.777581 -0.707465 -0.709498 15.907097 2.531963 -23.112338 -10.596242 -17.979662 62.449276 0.487758 -7.795174 -13.113096 -0.464400 -4.371000 12.122900 -9.401003 -0.837534 10.647237 -0.202060 -2.020794 -1.470329 5.083698 -1.247134 -2.832383 -3.191969 -2.770760 -15.087224 5.954978 -3.568725 6.857177 0.669800 -1.577900 6.780300 1.103432 4.151198 -0.697681 -85.274877 0.189732 24.320085 14.928743 -24.565134 -2.890992 0.440540 -0.006686 6.708486 6.337254 42.732232 4.010200 -7.125000 0.000000 0.000000 -43.747000 68.052600 -26.081900 -0.759671 -4.562636 -1.836735 82.316302 -2.529783 9.406286 -13.946172 24.373098 -2.529797 1.119152 0.727115 -25.371713 -24.336413 26.685492 -11.975300 7.125000 0.000000 0.000000 2.524200 -1.378800 2.465100 
